<?xml version="1.0" encoding="utf-8" standalone="no"?>
<!DOCTYPE svg PUBLIC "-//W3C//DTD SVG 1.1//EN"
  "http://www.w3.org/Graphics/SVG/1.1/DTD/svg11.dtd">
<svg height="345.6pt" version="1.1" viewBox="0 0 460.8 345.6" width="460.8pt" xmlns="http://www.w3.org/2000/svg" xmlns:xlink="http://www.w3.org/1999/xlink">
 <metadata>
  <rdf:RDF xmlns:cc="http://creativecommons.org/ns#" xmlns:dc="http://purl.org/dc/elements/1.1/" xmlns:rdf="http://www.w3.org/1999/02/22-rdf-syntax-ns#">
   <cc:Work>
    <dc:type rdf:resource="http://purl.org/dc/dcmitype/StillImage"/>
    <dc:date>2021-04-02T10:29:54.280006</dc:date>
    <dc:format>image/svg+xml</dc:format>
    <dc:creator>
     <cc:Agent>
      <dc:title>Matplotlib v3.4.1, https://matplotlib.org/</dc:title>
     </cc:Agent>
    </dc:creator>
   </cc:Work>
  </rdf:RDF>
 </metadata>
 <defs>
  <style type="text/css">*{stroke-linecap:butt;stroke-linejoin:round;}</style>
 </defs>
 <g id="figure_1">
  <g id="patch_1">
   <path d="M 0 345.6 
L 460.8 345.6 
L 460.8 0 
L 0 0 
z
" style="fill:#ffffff;"/>
  </g>
  <g id="axes_1">
   <g id="patch_2">
    <path d="M 92.16 307.584 
L 414.72 307.584 
L 414.72 34.56 
L 92.16 34.56 
z
" style="fill:#ffffff;"/>
   </g>
   <g id="matplotlib.axis_1">
    <g id="xtick_1">
     <g id="line2d_1">
      <path clip-path="url(#p359f23e007)" d="M 106.821818 307.584 
L 106.821818 34.56 
" style="fill:none;stroke:#cccccc;stroke-linecap:round;"/>
     </g>
     <g id="text_1">
      <!-- 0 -->
      <g style="fill:#262626;" transform="translate(103.322443 325.442281)scale(0.11 -0.11)">
       <defs>
        <path d="M 2034 4250 
Q 1547 4250 1301 3770 
Q 1056 3291 1056 2328 
Q 1056 1369 1301 889 
Q 1547 409 2034 409 
Q 2525 409 2770 889 
Q 3016 1369 3016 2328 
Q 3016 3291 2770 3770 
Q 2525 4250 2034 4250 
z
M 2034 4750 
Q 2819 4750 3233 4129 
Q 3647 3509 3647 2328 
Q 3647 1150 3233 529 
Q 2819 -91 2034 -91 
Q 1250 -91 836 529 
Q 422 1150 422 2328 
Q 422 3509 836 4129 
Q 1250 4750 2034 4750 
z
" id="DejaVuSans-30" transform="scale(0.015625)"/>
       </defs>
       <use xlink:href="#DejaVuSans-30"/>
      </g>
     </g>
    </g>
    <g id="xtick_2">
     <g id="line2d_2">
      <path clip-path="url(#p359f23e007)" d="M 166.061488 307.584 
L 166.061488 34.56 
" style="fill:none;stroke:#cccccc;stroke-linecap:round;"/>
     </g>
     <g id="text_2">
      <!-- 20 -->
      <g style="fill:#262626;" transform="translate(159.062738 325.442281)scale(0.11 -0.11)">
       <defs>
        <path d="M 1228 531 
L 3431 531 
L 3431 0 
L 469 0 
L 469 531 
Q 828 903 1448 1529 
Q 2069 2156 2228 2338 
Q 2531 2678 2651 2914 
Q 2772 3150 2772 3378 
Q 2772 3750 2511 3984 
Q 2250 4219 1831 4219 
Q 1534 4219 1204 4116 
Q 875 4013 500 3803 
L 500 4441 
Q 881 4594 1212 4672 
Q 1544 4750 1819 4750 
Q 2544 4750 2975 4387 
Q 3406 4025 3406 3419 
Q 3406 3131 3298 2873 
Q 3191 2616 2906 2266 
Q 2828 2175 2409 1742 
Q 1991 1309 1228 531 
z
" id="DejaVuSans-32" transform="scale(0.015625)"/>
       </defs>
       <use xlink:href="#DejaVuSans-32"/>
       <use x="63.623047" xlink:href="#DejaVuSans-30"/>
      </g>
     </g>
    </g>
    <g id="xtick_3">
     <g id="line2d_3">
      <path clip-path="url(#p359f23e007)" d="M 225.301157 307.584 
L 225.301157 34.56 
" style="fill:none;stroke:#cccccc;stroke-linecap:round;"/>
     </g>
     <g id="text_3">
      <!-- 40 -->
      <g style="fill:#262626;" transform="translate(218.302407 325.442281)scale(0.11 -0.11)">
       <defs>
        <path d="M 2419 4116 
L 825 1625 
L 2419 1625 
L 2419 4116 
z
M 2253 4666 
L 3047 4666 
L 3047 1625 
L 3713 1625 
L 3713 1100 
L 3047 1100 
L 3047 0 
L 2419 0 
L 2419 1100 
L 313 1100 
L 313 1709 
L 2253 4666 
z
" id="DejaVuSans-34" transform="scale(0.015625)"/>
       </defs>
       <use xlink:href="#DejaVuSans-34"/>
       <use x="63.623047" xlink:href="#DejaVuSans-30"/>
      </g>
     </g>
    </g>
    <g id="xtick_4">
     <g id="line2d_4">
      <path clip-path="url(#p359f23e007)" d="M 284.540826 307.584 
L 284.540826 34.56 
" style="fill:none;stroke:#cccccc;stroke-linecap:round;"/>
     </g>
     <g id="text_4">
      <!-- 60 -->
      <g style="fill:#262626;" transform="translate(277.542076 325.442281)scale(0.11 -0.11)">
       <defs>
        <path d="M 2113 2584 
Q 1688 2584 1439 2293 
Q 1191 2003 1191 1497 
Q 1191 994 1439 701 
Q 1688 409 2113 409 
Q 2538 409 2786 701 
Q 3034 994 3034 1497 
Q 3034 2003 2786 2293 
Q 2538 2584 2113 2584 
z
M 3366 4563 
L 3366 3988 
Q 3128 4100 2886 4159 
Q 2644 4219 2406 4219 
Q 1781 4219 1451 3797 
Q 1122 3375 1075 2522 
Q 1259 2794 1537 2939 
Q 1816 3084 2150 3084 
Q 2853 3084 3261 2657 
Q 3669 2231 3669 1497 
Q 3669 778 3244 343 
Q 2819 -91 2113 -91 
Q 1303 -91 875 529 
Q 447 1150 447 2328 
Q 447 3434 972 4092 
Q 1497 4750 2381 4750 
Q 2619 4750 2861 4703 
Q 3103 4656 3366 4563 
z
" id="DejaVuSans-36" transform="scale(0.015625)"/>
       </defs>
       <use xlink:href="#DejaVuSans-36"/>
       <use x="63.623047" xlink:href="#DejaVuSans-30"/>
      </g>
     </g>
    </g>
    <g id="xtick_5">
     <g id="line2d_5">
      <path clip-path="url(#p359f23e007)" d="M 343.780496 307.584 
L 343.780496 34.56 
" style="fill:none;stroke:#cccccc;stroke-linecap:round;"/>
     </g>
     <g id="text_5">
      <!-- 80 -->
      <g style="fill:#262626;" transform="translate(336.781746 325.442281)scale(0.11 -0.11)">
       <defs>
        <path d="M 2034 2216 
Q 1584 2216 1326 1975 
Q 1069 1734 1069 1313 
Q 1069 891 1326 650 
Q 1584 409 2034 409 
Q 2484 409 2743 651 
Q 3003 894 3003 1313 
Q 3003 1734 2745 1975 
Q 2488 2216 2034 2216 
z
M 1403 2484 
Q 997 2584 770 2862 
Q 544 3141 544 3541 
Q 544 4100 942 4425 
Q 1341 4750 2034 4750 
Q 2731 4750 3128 4425 
Q 3525 4100 3525 3541 
Q 3525 3141 3298 2862 
Q 3072 2584 2669 2484 
Q 3125 2378 3379 2068 
Q 3634 1759 3634 1313 
Q 3634 634 3220 271 
Q 2806 -91 2034 -91 
Q 1263 -91 848 271 
Q 434 634 434 1313 
Q 434 1759 690 2068 
Q 947 2378 1403 2484 
z
M 1172 3481 
Q 1172 3119 1398 2916 
Q 1625 2713 2034 2713 
Q 2441 2713 2670 2916 
Q 2900 3119 2900 3481 
Q 2900 3844 2670 4047 
Q 2441 4250 2034 4250 
Q 1625 4250 1398 4047 
Q 1172 3844 1172 3481 
z
" id="DejaVuSans-38" transform="scale(0.015625)"/>
       </defs>
       <use xlink:href="#DejaVuSans-38"/>
       <use x="63.623047" xlink:href="#DejaVuSans-30"/>
      </g>
     </g>
    </g>
    <g id="xtick_6">
     <g id="line2d_6">
      <path clip-path="url(#p359f23e007)" d="M 403.020165 307.584 
L 403.020165 34.56 
" style="fill:none;stroke:#cccccc;stroke-linecap:round;"/>
     </g>
     <g id="text_6">
      <!-- 100 -->
      <g style="fill:#262626;" transform="translate(392.52204 325.442281)scale(0.11 -0.11)">
       <defs>
        <path d="M 794 531 
L 1825 531 
L 1825 4091 
L 703 3866 
L 703 4441 
L 1819 4666 
L 2450 4666 
L 2450 531 
L 3481 531 
L 3481 0 
L 794 0 
L 794 531 
z
" id="DejaVuSans-31" transform="scale(0.015625)"/>
       </defs>
       <use xlink:href="#DejaVuSans-31"/>
       <use x="63.623047" xlink:href="#DejaVuSans-30"/>
       <use x="127.246094" xlink:href="#DejaVuSans-30"/>
      </g>
     </g>
    </g>
    <g id="text_7">
     <!-- Time -->
     <g style="fill:#262626;" transform="translate(238.759687 340.848062)scale(0.12 -0.12)">
      <defs>
       <path d="M -19 4666 
L 3928 4666 
L 3928 4134 
L 2272 4134 
L 2272 0 
L 1638 0 
L 1638 4134 
L -19 4134 
L -19 4666 
z
" id="DejaVuSans-54" transform="scale(0.015625)"/>
       <path d="M 603 3500 
L 1178 3500 
L 1178 0 
L 603 0 
L 603 3500 
z
M 603 4863 
L 1178 4863 
L 1178 4134 
L 603 4134 
L 603 4863 
z
" id="DejaVuSans-69" transform="scale(0.015625)"/>
       <path d="M 3328 2828 
Q 3544 3216 3844 3400 
Q 4144 3584 4550 3584 
Q 5097 3584 5394 3201 
Q 5691 2819 5691 2113 
L 5691 0 
L 5113 0 
L 5113 2094 
Q 5113 2597 4934 2840 
Q 4756 3084 4391 3084 
Q 3944 3084 3684 2787 
Q 3425 2491 3425 1978 
L 3425 0 
L 2847 0 
L 2847 2094 
Q 2847 2600 2669 2842 
Q 2491 3084 2119 3084 
Q 1678 3084 1418 2786 
Q 1159 2488 1159 1978 
L 1159 0 
L 581 0 
L 581 3500 
L 1159 3500 
L 1159 2956 
Q 1356 3278 1631 3431 
Q 1906 3584 2284 3584 
Q 2666 3584 2933 3390 
Q 3200 3197 3328 2828 
z
" id="DejaVuSans-6d" transform="scale(0.015625)"/>
       <path d="M 3597 1894 
L 3597 1613 
L 953 1613 
Q 991 1019 1311 708 
Q 1631 397 2203 397 
Q 2534 397 2845 478 
Q 3156 559 3463 722 
L 3463 178 
Q 3153 47 2828 -22 
Q 2503 -91 2169 -91 
Q 1331 -91 842 396 
Q 353 884 353 1716 
Q 353 2575 817 3079 
Q 1281 3584 2069 3584 
Q 2775 3584 3186 3129 
Q 3597 2675 3597 1894 
z
M 3022 2063 
Q 3016 2534 2758 2815 
Q 2500 3097 2075 3097 
Q 1594 3097 1305 2825 
Q 1016 2553 972 2059 
L 3022 2063 
z
" id="DejaVuSans-65" transform="scale(0.015625)"/>
      </defs>
      <use xlink:href="#DejaVuSans-54"/>
      <use x="57.958984" xlink:href="#DejaVuSans-69"/>
      <use x="85.742188" xlink:href="#DejaVuSans-6d"/>
      <use x="183.154297" xlink:href="#DejaVuSans-65"/>
     </g>
    </g>
   </g>
   <g id="matplotlib.axis_2">
    <g id="ytick_1">
     <g id="line2d_7">
      <path clip-path="url(#p359f23e007)" d="M 92.16 282.078434 
L 414.72 282.078434 
" style="fill:none;stroke:#cccccc;stroke-linecap:round;"/>
     </g>
     <g id="text_8">
      <!-- −0.3 -->
      <g style="fill:#262626;" transform="translate(55.948906 286.257574)scale(0.11 -0.11)">
       <defs>
        <path d="M 678 2272 
L 4684 2272 
L 4684 1741 
L 678 1741 
L 678 2272 
z
" id="DejaVuSans-2212" transform="scale(0.015625)"/>
        <path d="M 684 794 
L 1344 794 
L 1344 0 
L 684 0 
L 684 794 
z
" id="DejaVuSans-2e" transform="scale(0.015625)"/>
        <path d="M 2597 2516 
Q 3050 2419 3304 2112 
Q 3559 1806 3559 1356 
Q 3559 666 3084 287 
Q 2609 -91 1734 -91 
Q 1441 -91 1130 -33 
Q 819 25 488 141 
L 488 750 
Q 750 597 1062 519 
Q 1375 441 1716 441 
Q 2309 441 2620 675 
Q 2931 909 2931 1356 
Q 2931 1769 2642 2001 
Q 2353 2234 1838 2234 
L 1294 2234 
L 1294 2753 
L 1863 2753 
Q 2328 2753 2575 2939 
Q 2822 3125 2822 3475 
Q 2822 3834 2567 4026 
Q 2313 4219 1838 4219 
Q 1578 4219 1281 4162 
Q 984 4106 628 3988 
L 628 4550 
Q 988 4650 1302 4700 
Q 1616 4750 1894 4750 
Q 2613 4750 3031 4423 
Q 3450 4097 3450 3541 
Q 3450 3153 3228 2886 
Q 3006 2619 2597 2516 
z
" id="DejaVuSans-33" transform="scale(0.015625)"/>
       </defs>
       <use xlink:href="#DejaVuSans-2212"/>
       <use x="83.789062" xlink:href="#DejaVuSans-30"/>
       <use x="147.412109" xlink:href="#DejaVuSans-2e"/>
       <use x="179.199219" xlink:href="#DejaVuSans-33"/>
      </g>
     </g>
    </g>
    <g id="ytick_2">
     <g id="line2d_8">
      <path clip-path="url(#p359f23e007)" d="M 92.16 245.238409 
L 414.72 245.238409 
" style="fill:none;stroke:#cccccc;stroke-linecap:round;"/>
     </g>
     <g id="text_9">
      <!-- −0.2 -->
      <g style="fill:#262626;" transform="translate(55.948906 249.41755)scale(0.11 -0.11)">
       <use xlink:href="#DejaVuSans-2212"/>
       <use x="83.789062" xlink:href="#DejaVuSans-30"/>
       <use x="147.412109" xlink:href="#DejaVuSans-2e"/>
       <use x="179.199219" xlink:href="#DejaVuSans-32"/>
      </g>
     </g>
    </g>
    <g id="ytick_3">
     <g id="line2d_9">
      <path clip-path="url(#p359f23e007)" d="M 92.16 208.398384 
L 414.72 208.398384 
" style="fill:none;stroke:#cccccc;stroke-linecap:round;"/>
     </g>
     <g id="text_10">
      <!-- −0.1 -->
      <g style="fill:#262626;" transform="translate(55.948906 212.577525)scale(0.11 -0.11)">
       <use xlink:href="#DejaVuSans-2212"/>
       <use x="83.789062" xlink:href="#DejaVuSans-30"/>
       <use x="147.412109" xlink:href="#DejaVuSans-2e"/>
       <use x="179.199219" xlink:href="#DejaVuSans-31"/>
      </g>
     </g>
    </g>
    <g id="ytick_4">
     <g id="line2d_10">
      <path clip-path="url(#p359f23e007)" d="M 92.16 171.558359 
L 414.72 171.558359 
" style="fill:none;stroke:#cccccc;stroke-linecap:round;"/>
     </g>
     <g id="text_11">
      <!-- 0.0 -->
      <g style="fill:#262626;" transform="translate(65.166563 175.7375)scale(0.11 -0.11)">
       <use xlink:href="#DejaVuSans-30"/>
       <use x="63.623047" xlink:href="#DejaVuSans-2e"/>
       <use x="95.410156" xlink:href="#DejaVuSans-30"/>
      </g>
     </g>
    </g>
    <g id="ytick_5">
     <g id="line2d_11">
      <path clip-path="url(#p359f23e007)" d="M 92.16 134.718334 
L 414.72 134.718334 
" style="fill:none;stroke:#cccccc;stroke-linecap:round;"/>
     </g>
     <g id="text_12">
      <!-- 0.1 -->
      <g style="fill:#262626;" transform="translate(65.166563 138.897475)scale(0.11 -0.11)">
       <use xlink:href="#DejaVuSans-30"/>
       <use x="63.623047" xlink:href="#DejaVuSans-2e"/>
       <use x="95.410156" xlink:href="#DejaVuSans-31"/>
      </g>
     </g>
    </g>
    <g id="ytick_6">
     <g id="line2d_12">
      <path clip-path="url(#p359f23e007)" d="M 92.16 97.878309 
L 414.72 97.878309 
" style="fill:none;stroke:#cccccc;stroke-linecap:round;"/>
     </g>
     <g id="text_13">
      <!-- 0.2 -->
      <g style="fill:#262626;" transform="translate(65.166563 102.05745)scale(0.11 -0.11)">
       <use xlink:href="#DejaVuSans-30"/>
       <use x="63.623047" xlink:href="#DejaVuSans-2e"/>
       <use x="95.410156" xlink:href="#DejaVuSans-32"/>
      </g>
     </g>
    </g>
    <g id="ytick_7">
     <g id="line2d_13">
      <path clip-path="url(#p359f23e007)" d="M 92.16 61.038284 
L 414.72 61.038284 
" style="fill:none;stroke:#cccccc;stroke-linecap:round;"/>
     </g>
     <g id="text_14">
      <!-- 0.3 -->
      <g style="fill:#262626;" transform="translate(65.166563 65.217425)scale(0.11 -0.11)">
       <use xlink:href="#DejaVuSans-30"/>
       <use x="63.623047" xlink:href="#DejaVuSans-2e"/>
       <use x="95.410156" xlink:href="#DejaVuSans-33"/>
      </g>
     </g>
    </g>
    <g id="text_15">
     <!-- Price -->
     <g style="fill:#262626;" transform="translate(49.453281 185.709187)rotate(-90)scale(0.12 -0.12)">
      <defs>
       <path d="M 1259 4147 
L 1259 2394 
L 2053 2394 
Q 2494 2394 2734 2622 
Q 2975 2850 2975 3272 
Q 2975 3691 2734 3919 
Q 2494 4147 2053 4147 
L 1259 4147 
z
M 628 4666 
L 2053 4666 
Q 2838 4666 3239 4311 
Q 3641 3956 3641 3272 
Q 3641 2581 3239 2228 
Q 2838 1875 2053 1875 
L 1259 1875 
L 1259 0 
L 628 0 
L 628 4666 
z
" id="DejaVuSans-50" transform="scale(0.015625)"/>
       <path d="M 2631 2963 
Q 2534 3019 2420 3045 
Q 2306 3072 2169 3072 
Q 1681 3072 1420 2755 
Q 1159 2438 1159 1844 
L 1159 0 
L 581 0 
L 581 3500 
L 1159 3500 
L 1159 2956 
Q 1341 3275 1631 3429 
Q 1922 3584 2338 3584 
Q 2397 3584 2469 3576 
Q 2541 3569 2628 3553 
L 2631 2963 
z
" id="DejaVuSans-72" transform="scale(0.015625)"/>
       <path d="M 3122 3366 
L 3122 2828 
Q 2878 2963 2633 3030 
Q 2388 3097 2138 3097 
Q 1578 3097 1268 2742 
Q 959 2388 959 1747 
Q 959 1106 1268 751 
Q 1578 397 2138 397 
Q 2388 397 2633 464 
Q 2878 531 3122 666 
L 3122 134 
Q 2881 22 2623 -34 
Q 2366 -91 2075 -91 
Q 1284 -91 818 406 
Q 353 903 353 1747 
Q 353 2603 823 3093 
Q 1294 3584 2113 3584 
Q 2378 3584 2631 3529 
Q 2884 3475 3122 3366 
z
" id="DejaVuSans-63" transform="scale(0.015625)"/>
      </defs>
      <use xlink:href="#DejaVuSans-50"/>
      <use x="58.552734" xlink:href="#DejaVuSans-72"/>
      <use x="99.666016" xlink:href="#DejaVuSans-69"/>
      <use x="127.449219" xlink:href="#DejaVuSans-63"/>
      <use x="182.429688" xlink:href="#DejaVuSans-65"/>
     </g>
    </g>
   </g>
   <g id="PolyCollection_1">
    <defs>
     <path d="M 106.821818 -298.597964 
L 106.821818 -177.380524 
L 109.783802 -126.957678 
L 112.745785 -131.203583 
L 115.707769 -141.479315 
L 118.669752 -126.542942 
L 121.631736 -123.876125 
L 124.593719 -99.92075 
L 127.555702 -127.767876 
L 130.517686 -124.801274 
L 133.479669 -87.989676 
L 136.441653 -118.610454 
L 139.403636 -134.338652 
L 142.36562 -76.404635 
L 145.327603 -116.646147 
L 148.289587 -120.468812 
L 151.25157 -127.236491 
L 154.213554 -104.032147 
L 157.175537 -170.869203 
L 160.137521 -104.729749 
L 163.099504 -141.488272 
L 166.061488 -138.317313 
L 169.023471 -158.396082 
L 171.985455 -139.246515 
L 174.947438 -138.935022 
L 177.909421 -117.3191 
L 180.871405 -104.323417 
L 183.833388 -146.573822 
L 186.795372 -92.523188 
L 189.757355 -99.688154 
L 192.719339 -114.224489 
L 195.681322 -148.283913 
L 198.643306 -92.427294 
L 201.605289 -96.061051 
L 204.567273 -120.225444 
L 207.529256 -142.054338 
L 210.49124 -129.385876 
L 213.453223 -125.304132 
L 216.415207 -151.599226 
L 219.37719 -128.647427 
L 222.339174 -142.021822 
L 225.301157 -110.209667 
L 228.26314 -137.574691 
L 231.225124 -137.017125 
L 234.187107 -74.768308 
L 237.149091 -117.494082 
L 240.111074 -139.361192 
L 243.073058 -67.362906 
L 246.035041 -120.024136 
L 248.997025 -89.634735 
L 251.959008 -133.84521 
L 254.920992 -80.630039 
L 257.882975 -119.3037 
L 260.844959 -97.777071 
L 263.806942 -156.530065 
L 266.768926 -106.785792 
L 269.730909 -126.573195 
L 272.692893 -104.100537 
L 275.654876 -177.90964 
L 278.61686 -171.116539 
L 281.578843 -148.862767 
L 284.540826 -141.320427 
L 287.50281 -122.783182 
L 290.464793 -147.779338 
L 293.426777 -151.998628 
L 296.38876 -102.069142 
L 299.350744 -131.261963 
L 302.312727 -132.409006 
L 305.274711 -50.426182 
L 308.236694 -133.242655 
L 311.198678 -147.538796 
L 314.160661 -132.322907 
L 317.122645 -137.445459 
L 320.084628 -163.685165 
L 323.046612 -140.10278 
L 326.008595 -111.47339 
L 328.970579 -125.985642 
L 331.932562 -103.830407 
L 334.894545 -123.349482 
L 337.856529 -166.339989 
L 340.818512 -108.303073 
L 343.780496 -108.346401 
L 346.742479 -134.128444 
L 349.704463 -169.673695 
L 352.666446 -141.550519 
L 355.62843 -67.329836 
L 358.590413 -94.80132 
L 361.552397 -112.797392 
L 364.51438 -103.63865 
L 367.476364 -124.450266 
L 370.438347 -137.122574 
L 373.400331 -143.935233 
L 376.362314 -173.531658 
L 379.324298 -139.312936 
L 382.286281 -154.631441 
L 385.248264 -172.746799 
L 388.210248 -128.693747 
L 391.172231 -157.401908 
L 394.134215 -156.416746 
L 397.096198 -138.178817 
L 400.058182 -104.467327 
L 400.058182 -196.934417 
L 400.058182 -196.934417 
L 397.096198 -250.031131 
L 394.134215 -251.004049 
L 391.172231 -274.402498 
L 388.210248 -238.826614 
L 385.248264 -271.368577 
L 382.286281 -251.50954 
L 379.324298 -236.445301 
L 376.362314 -261.485303 
L 373.400331 -243.829842 
L 370.438347 -231.467954 
L 367.476364 -207.506597 
L 364.51438 -208.773885 
L 361.552397 -217.987019 
L 358.590413 -207.104176 
L 355.62843 -160.306493 
L 352.666446 -239.505419 
L 349.704463 -258.347602 
L 346.742479 -229.352958 
L 343.780496 -201.293418 
L 340.818512 -215.408298 
L 337.856529 -256.115755 
L 334.894545 -221.101987 
L 331.932562 -217.829737 
L 328.970579 -217.896057 
L 326.008595 -211.590396 
L 323.046612 -242.207203 
L 320.084628 -273.722161 
L 317.122645 -229.746011 
L 314.160661 -220.708197 
L 311.198678 -243.738068 
L 308.236694 -217.425516 
L 305.274711 -169.212798 
L 302.312727 -220.424296 
L 299.350744 -238.23323 
L 296.38876 -221.390414 
L 293.426777 -253.38776 
L 290.464793 -259.692844 
L 287.50281 -225.901181 
L 284.540826 -236.563251 
L 281.578843 -229.703187 
L 278.61686 -280.345131 
L 275.654876 -298.629818 
L 272.692893 -211.832734 
L 269.730909 -246.585965 
L 266.768926 -209.628417 
L 263.806942 -261.657693 
L 260.844959 -222.000234 
L 257.882975 -239.702719 
L 254.920992 -187.932012 
L 251.959008 -255.86736 
L 248.997025 -202.459334 
L 246.035041 -217.492283 
L 243.073058 -178.100947 
L 240.111074 -240.163921 
L 237.149091 -216.596478 
L 234.187107 -183.532508 
L 231.225124 -219.605922 
L 228.26314 -225.979285 
L 225.301157 -209.110694 
L 222.339174 -255.410169 
L 219.37719 -238.135081 
L 216.415207 -246.024899 
L 213.453223 -223.334408 
L 210.49124 -230.676611 
L 207.529256 -239.650264 
L 204.567273 -215.846401 
L 201.605289 -197.496389 
L 198.643306 -182.516671 
L 195.681322 -239.327743 
L 192.719339 -207.740545 
L 189.757355 -188.645541 
L 186.795372 -195.359448 
L 183.833388 -236.776179 
L 180.871405 -183.264742 
L 177.909421 -216.122052 
L 174.947438 -237.883096 
L 171.985455 -244.613022 
L 169.023471 -256.62479 
L 166.061488 -224.224668 
L 163.099504 -243.681077 
L 160.137521 -201.783302 
L 157.175537 -266.458559 
L 154.213554 -217.29583 
L 151.25157 -213.338519 
L 148.289587 -221.152966 
L 145.327603 -200.173095 
L 142.36562 -186.194079 
L 139.403636 -242.624274 
L 136.441653 -228.934372 
L 133.479669 -187.647414 
L 130.517686 -228.586897 
L 127.555702 -257.263931 
L 124.593719 -215.855586 
L 121.631736 -227.423862 
L 118.669752 -225.932805 
L 115.707769 -257.240428 
L 112.745785 -227.192488 
L 109.783802 -234.575596 
L 106.821818 -298.597964 
z
" id="m7f1b018b15" style="stroke:#4c72b0;stroke-opacity:0.2;"/>
    </defs>
    <g clip-path="url(#p359f23e007)">
     <use style="fill:#4c72b0;fill-opacity:0.2;stroke:#4c72b0;stroke-opacity:0.2;" x="0" xlink:href="#m7f1b018b15" y="345.6"/>
    </g>
   </g>
   <g id="line2d_14">
    <path clip-path="url(#p359f23e007)" d="M 106.821818 107.333517 
L 109.783802 168.271797 
L 112.745785 168.764418 
L 115.707769 146.146858 
L 118.669752 168.226913 
L 121.631736 169.554224 
L 124.593719 187.197115 
L 127.555702 154.306682 
L 130.517686 168.999751 
L 133.479669 207.365897 
L 136.441653 174.376625 
L 139.403636 156.117583 
L 142.36562 213.403775 
L 145.327603 188.509983 
L 148.289587 174.233184 
L 151.25157 175.825525 
L 154.213554 187.982174 
L 157.175537 129.524948 
L 160.137521 194.239677 
L 163.099504 154.468163 
L 166.061488 163.491739 
L 169.023471 140.007202 
L 171.985455 153.486785 
L 174.947438 157.210513 
L 177.909421 177.346408 
L 180.871405 199.890865 
L 183.833388 153.020003 
L 186.795372 201.010344 
L 189.757355 198.191962 
L 192.719339 186.910488 
L 195.681322 152.190036 
L 198.643306 209.584568 
L 201.605289 200.231726 
L 204.567273 177.027075 
L 207.529256 154.745486 
L 210.49124 163.633411 
L 213.453223 173.645836 
L 216.415207 147.450851 
L 219.37719 164.175935 
L 222.339174 146.261868 
L 225.301157 187.916463 
L 228.26314 163.519637 
L 231.225124 168.219383 
L 234.187107 217.634287 
L 237.149091 179.138653 
L 240.111074 157.285621 
L 243.073058 219.498569 
L 246.035041 174.498883 
L 248.997025 200.06492 
L 251.959008 151.081955 
L 254.920992 211.745032 
L 257.882975 164.126172 
L 260.844959 180.16429 
L 263.806942 133.220256 
L 266.768926 185.628642 
L 269.730909 159.385018 
L 272.692893 188.182675 
L 275.654876 110.121465 
L 278.61686 121.339158 
L 281.578843 155.984393 
L 284.540826 155.123954 
L 287.50281 170.513468 
L 290.464793 140.670552 
L 293.426777 144.773319 
L 296.38876 185.481586 
L 299.350744 162.559835 
L 302.312727 168.324207 
L 305.274711 233.819484 
L 308.236694 170.328693 
L 311.198678 148.588209 
L 314.160661 168.276398 
L 317.122645 163.853926 
L 320.084628 126.530397 
L 323.046612 154.964849 
L 326.008595 182.399702 
L 328.970579 174.377925 
L 331.932562 183.100622 
L 334.894545 173.061933 
L 337.856529 133.840552 
L 340.818512 180.21432 
L 343.780496 191.991467 
L 346.742479 164.086497 
L 349.704463 133.505935 
L 352.666446 156.169127 
L 355.62843 229.666381 
L 358.590413 194.121814 
L 361.552397 183.497422 
L 364.51438 186.820041 
L 367.476364 179.07664 
L 370.438347 159.056928 
L 373.400331 152.686142 
L 376.362314 128.528713 
L 379.324298 162.19176 
L 382.286281 144.837645 
L 385.248264 125.183267 
L 388.210248 159.912752 
L 391.172231 130.067207 
L 394.134215 144.70943 
L 397.096198 152.082035 
L 400.058182 194.9817 
" style="fill:none;stroke:#4c72b0;stroke-linecap:round;stroke-width:1.5;"/>
    <defs>
     <path d="M 0 3 
C 0.795609 3 1.55874 2.683901 2.12132 2.12132 
C 2.683901 1.55874 3 0.795609 3 0 
C 3 -0.795609 2.683901 -1.55874 2.12132 -2.12132 
C 1.55874 -2.683901 0.795609 -3 0 -3 
C -0.795609 -3 -1.55874 -2.683901 -2.12132 -2.12132 
C -2.683901 -1.55874 -3 -0.795609 -3 0 
C -3 0.795609 -2.683901 1.55874 -2.12132 2.12132 
C -1.55874 2.683901 -0.795609 3 0 3 
z
" id="m90cd6c7b2f" style="stroke:#ffffff;stroke-width:0.75;"/>
    </defs>
    <g clip-path="url(#p359f23e007)">
     <use style="fill:#4c72b0;stroke:#ffffff;stroke-width:0.75;" x="106.821818" xlink:href="#m90cd6c7b2f" y="107.333517"/>
     <use style="fill:#4c72b0;stroke:#ffffff;stroke-width:0.75;" x="109.783802" xlink:href="#m90cd6c7b2f" y="168.271797"/>
     <use style="fill:#4c72b0;stroke:#ffffff;stroke-width:0.75;" x="112.745785" xlink:href="#m90cd6c7b2f" y="168.764418"/>
     <use style="fill:#4c72b0;stroke:#ffffff;stroke-width:0.75;" x="115.707769" xlink:href="#m90cd6c7b2f" y="146.146858"/>
     <use style="fill:#4c72b0;stroke:#ffffff;stroke-width:0.75;" x="118.669752" xlink:href="#m90cd6c7b2f" y="168.226913"/>
     <use style="fill:#4c72b0;stroke:#ffffff;stroke-width:0.75;" x="121.631736" xlink:href="#m90cd6c7b2f" y="169.554224"/>
     <use style="fill:#4c72b0;stroke:#ffffff;stroke-width:0.75;" x="124.593719" xlink:href="#m90cd6c7b2f" y="187.197115"/>
     <use style="fill:#4c72b0;stroke:#ffffff;stroke-width:0.75;" x="127.555702" xlink:href="#m90cd6c7b2f" y="154.306682"/>
     <use style="fill:#4c72b0;stroke:#ffffff;stroke-width:0.75;" x="130.517686" xlink:href="#m90cd6c7b2f" y="168.999751"/>
     <use style="fill:#4c72b0;stroke:#ffffff;stroke-width:0.75;" x="133.479669" xlink:href="#m90cd6c7b2f" y="207.365897"/>
     <use style="fill:#4c72b0;stroke:#ffffff;stroke-width:0.75;" x="136.441653" xlink:href="#m90cd6c7b2f" y="174.376625"/>
     <use style="fill:#4c72b0;stroke:#ffffff;stroke-width:0.75;" x="139.403636" xlink:href="#m90cd6c7b2f" y="156.117583"/>
     <use style="fill:#4c72b0;stroke:#ffffff;stroke-width:0.75;" x="142.36562" xlink:href="#m90cd6c7b2f" y="213.403775"/>
     <use style="fill:#4c72b0;stroke:#ffffff;stroke-width:0.75;" x="145.327603" xlink:href="#m90cd6c7b2f" y="188.509983"/>
     <use style="fill:#4c72b0;stroke:#ffffff;stroke-width:0.75;" x="148.289587" xlink:href="#m90cd6c7b2f" y="174.233184"/>
     <use style="fill:#4c72b0;stroke:#ffffff;stroke-width:0.75;" x="151.25157" xlink:href="#m90cd6c7b2f" y="175.825525"/>
     <use style="fill:#4c72b0;stroke:#ffffff;stroke-width:0.75;" x="154.213554" xlink:href="#m90cd6c7b2f" y="187.982174"/>
     <use style="fill:#4c72b0;stroke:#ffffff;stroke-width:0.75;" x="157.175537" xlink:href="#m90cd6c7b2f" y="129.524948"/>
     <use style="fill:#4c72b0;stroke:#ffffff;stroke-width:0.75;" x="160.137521" xlink:href="#m90cd6c7b2f" y="194.239677"/>
     <use style="fill:#4c72b0;stroke:#ffffff;stroke-width:0.75;" x="163.099504" xlink:href="#m90cd6c7b2f" y="154.468163"/>
     <use style="fill:#4c72b0;stroke:#ffffff;stroke-width:0.75;" x="166.061488" xlink:href="#m90cd6c7b2f" y="163.491739"/>
     <use style="fill:#4c72b0;stroke:#ffffff;stroke-width:0.75;" x="169.023471" xlink:href="#m90cd6c7b2f" y="140.007202"/>
     <use style="fill:#4c72b0;stroke:#ffffff;stroke-width:0.75;" x="171.985455" xlink:href="#m90cd6c7b2f" y="153.486785"/>
     <use style="fill:#4c72b0;stroke:#ffffff;stroke-width:0.75;" x="174.947438" xlink:href="#m90cd6c7b2f" y="157.210513"/>
     <use style="fill:#4c72b0;stroke:#ffffff;stroke-width:0.75;" x="177.909421" xlink:href="#m90cd6c7b2f" y="177.346408"/>
     <use style="fill:#4c72b0;stroke:#ffffff;stroke-width:0.75;" x="180.871405" xlink:href="#m90cd6c7b2f" y="199.890865"/>
     <use style="fill:#4c72b0;stroke:#ffffff;stroke-width:0.75;" x="183.833388" xlink:href="#m90cd6c7b2f" y="153.020003"/>
     <use style="fill:#4c72b0;stroke:#ffffff;stroke-width:0.75;" x="186.795372" xlink:href="#m90cd6c7b2f" y="201.010344"/>
     <use style="fill:#4c72b0;stroke:#ffffff;stroke-width:0.75;" x="189.757355" xlink:href="#m90cd6c7b2f" y="198.191962"/>
     <use style="fill:#4c72b0;stroke:#ffffff;stroke-width:0.75;" x="192.719339" xlink:href="#m90cd6c7b2f" y="186.910488"/>
     <use style="fill:#4c72b0;stroke:#ffffff;stroke-width:0.75;" x="195.681322" xlink:href="#m90cd6c7b2f" y="152.190036"/>
     <use style="fill:#4c72b0;stroke:#ffffff;stroke-width:0.75;" x="198.643306" xlink:href="#m90cd6c7b2f" y="209.584568"/>
     <use style="fill:#4c72b0;stroke:#ffffff;stroke-width:0.75;" x="201.605289" xlink:href="#m90cd6c7b2f" y="200.231726"/>
     <use style="fill:#4c72b0;stroke:#ffffff;stroke-width:0.75;" x="204.567273" xlink:href="#m90cd6c7b2f" y="177.027075"/>
     <use style="fill:#4c72b0;stroke:#ffffff;stroke-width:0.75;" x="207.529256" xlink:href="#m90cd6c7b2f" y="154.745486"/>
     <use style="fill:#4c72b0;stroke:#ffffff;stroke-width:0.75;" x="210.49124" xlink:href="#m90cd6c7b2f" y="163.633411"/>
     <use style="fill:#4c72b0;stroke:#ffffff;stroke-width:0.75;" x="213.453223" xlink:href="#m90cd6c7b2f" y="173.645836"/>
     <use style="fill:#4c72b0;stroke:#ffffff;stroke-width:0.75;" x="216.415207" xlink:href="#m90cd6c7b2f" y="147.450851"/>
     <use style="fill:#4c72b0;stroke:#ffffff;stroke-width:0.75;" x="219.37719" xlink:href="#m90cd6c7b2f" y="164.175935"/>
     <use style="fill:#4c72b0;stroke:#ffffff;stroke-width:0.75;" x="222.339174" xlink:href="#m90cd6c7b2f" y="146.261868"/>
     <use style="fill:#4c72b0;stroke:#ffffff;stroke-width:0.75;" x="225.301157" xlink:href="#m90cd6c7b2f" y="187.916463"/>
     <use style="fill:#4c72b0;stroke:#ffffff;stroke-width:0.75;" x="228.26314" xlink:href="#m90cd6c7b2f" y="163.519637"/>
     <use style="fill:#4c72b0;stroke:#ffffff;stroke-width:0.75;" x="231.225124" xlink:href="#m90cd6c7b2f" y="168.219383"/>
     <use style="fill:#4c72b0;stroke:#ffffff;stroke-width:0.75;" x="234.187107" xlink:href="#m90cd6c7b2f" y="217.634287"/>
     <use style="fill:#4c72b0;stroke:#ffffff;stroke-width:0.75;" x="237.149091" xlink:href="#m90cd6c7b2f" y="179.138653"/>
     <use style="fill:#4c72b0;stroke:#ffffff;stroke-width:0.75;" x="240.111074" xlink:href="#m90cd6c7b2f" y="157.285621"/>
     <use style="fill:#4c72b0;stroke:#ffffff;stroke-width:0.75;" x="243.073058" xlink:href="#m90cd6c7b2f" y="219.498569"/>
     <use style="fill:#4c72b0;stroke:#ffffff;stroke-width:0.75;" x="246.035041" xlink:href="#m90cd6c7b2f" y="174.498883"/>
     <use style="fill:#4c72b0;stroke:#ffffff;stroke-width:0.75;" x="248.997025" xlink:href="#m90cd6c7b2f" y="200.06492"/>
     <use style="fill:#4c72b0;stroke:#ffffff;stroke-width:0.75;" x="251.959008" xlink:href="#m90cd6c7b2f" y="151.081955"/>
     <use style="fill:#4c72b0;stroke:#ffffff;stroke-width:0.75;" x="254.920992" xlink:href="#m90cd6c7b2f" y="211.745032"/>
     <use style="fill:#4c72b0;stroke:#ffffff;stroke-width:0.75;" x="257.882975" xlink:href="#m90cd6c7b2f" y="164.126172"/>
     <use style="fill:#4c72b0;stroke:#ffffff;stroke-width:0.75;" x="260.844959" xlink:href="#m90cd6c7b2f" y="180.16429"/>
     <use style="fill:#4c72b0;stroke:#ffffff;stroke-width:0.75;" x="263.806942" xlink:href="#m90cd6c7b2f" y="133.220256"/>
     <use style="fill:#4c72b0;stroke:#ffffff;stroke-width:0.75;" x="266.768926" xlink:href="#m90cd6c7b2f" y="185.628642"/>
     <use style="fill:#4c72b0;stroke:#ffffff;stroke-width:0.75;" x="269.730909" xlink:href="#m90cd6c7b2f" y="159.385018"/>
     <use style="fill:#4c72b0;stroke:#ffffff;stroke-width:0.75;" x="272.692893" xlink:href="#m90cd6c7b2f" y="188.182675"/>
     <use style="fill:#4c72b0;stroke:#ffffff;stroke-width:0.75;" x="275.654876" xlink:href="#m90cd6c7b2f" y="110.121465"/>
     <use style="fill:#4c72b0;stroke:#ffffff;stroke-width:0.75;" x="278.61686" xlink:href="#m90cd6c7b2f" y="121.339158"/>
     <use style="fill:#4c72b0;stroke:#ffffff;stroke-width:0.75;" x="281.578843" xlink:href="#m90cd6c7b2f" y="155.984393"/>
     <use style="fill:#4c72b0;stroke:#ffffff;stroke-width:0.75;" x="284.540826" xlink:href="#m90cd6c7b2f" y="155.123954"/>
     <use style="fill:#4c72b0;stroke:#ffffff;stroke-width:0.75;" x="287.50281" xlink:href="#m90cd6c7b2f" y="170.513468"/>
     <use style="fill:#4c72b0;stroke:#ffffff;stroke-width:0.75;" x="290.464793" xlink:href="#m90cd6c7b2f" y="140.670552"/>
     <use style="fill:#4c72b0;stroke:#ffffff;stroke-width:0.75;" x="293.426777" xlink:href="#m90cd6c7b2f" y="144.773319"/>
     <use style="fill:#4c72b0;stroke:#ffffff;stroke-width:0.75;" x="296.38876" xlink:href="#m90cd6c7b2f" y="185.481586"/>
     <use style="fill:#4c72b0;stroke:#ffffff;stroke-width:0.75;" x="299.350744" xlink:href="#m90cd6c7b2f" y="162.559835"/>
     <use style="fill:#4c72b0;stroke:#ffffff;stroke-width:0.75;" x="302.312727" xlink:href="#m90cd6c7b2f" y="168.324207"/>
     <use style="fill:#4c72b0;stroke:#ffffff;stroke-width:0.75;" x="305.274711" xlink:href="#m90cd6c7b2f" y="233.819484"/>
     <use style="fill:#4c72b0;stroke:#ffffff;stroke-width:0.75;" x="308.236694" xlink:href="#m90cd6c7b2f" y="170.328693"/>
     <use style="fill:#4c72b0;stroke:#ffffff;stroke-width:0.75;" x="311.198678" xlink:href="#m90cd6c7b2f" y="148.588209"/>
     <use style="fill:#4c72b0;stroke:#ffffff;stroke-width:0.75;" x="314.160661" xlink:href="#m90cd6c7b2f" y="168.276398"/>
     <use style="fill:#4c72b0;stroke:#ffffff;stroke-width:0.75;" x="317.122645" xlink:href="#m90cd6c7b2f" y="163.853926"/>
     <use style="fill:#4c72b0;stroke:#ffffff;stroke-width:0.75;" x="320.084628" xlink:href="#m90cd6c7b2f" y="126.530397"/>
     <use style="fill:#4c72b0;stroke:#ffffff;stroke-width:0.75;" x="323.046612" xlink:href="#m90cd6c7b2f" y="154.964849"/>
     <use style="fill:#4c72b0;stroke:#ffffff;stroke-width:0.75;" x="326.008595" xlink:href="#m90cd6c7b2f" y="182.399702"/>
     <use style="fill:#4c72b0;stroke:#ffffff;stroke-width:0.75;" x="328.970579" xlink:href="#m90cd6c7b2f" y="174.377925"/>
     <use style="fill:#4c72b0;stroke:#ffffff;stroke-width:0.75;" x="331.932562" xlink:href="#m90cd6c7b2f" y="183.100622"/>
     <use style="fill:#4c72b0;stroke:#ffffff;stroke-width:0.75;" x="334.894545" xlink:href="#m90cd6c7b2f" y="173.061933"/>
     <use style="fill:#4c72b0;stroke:#ffffff;stroke-width:0.75;" x="337.856529" xlink:href="#m90cd6c7b2f" y="133.840552"/>
     <use style="fill:#4c72b0;stroke:#ffffff;stroke-width:0.75;" x="340.818512" xlink:href="#m90cd6c7b2f" y="180.21432"/>
     <use style="fill:#4c72b0;stroke:#ffffff;stroke-width:0.75;" x="343.780496" xlink:href="#m90cd6c7b2f" y="191.991467"/>
     <use style="fill:#4c72b0;stroke:#ffffff;stroke-width:0.75;" x="346.742479" xlink:href="#m90cd6c7b2f" y="164.086497"/>
     <use style="fill:#4c72b0;stroke:#ffffff;stroke-width:0.75;" x="349.704463" xlink:href="#m90cd6c7b2f" y="133.505935"/>
     <use style="fill:#4c72b0;stroke:#ffffff;stroke-width:0.75;" x="352.666446" xlink:href="#m90cd6c7b2f" y="156.169127"/>
     <use style="fill:#4c72b0;stroke:#ffffff;stroke-width:0.75;" x="355.62843" xlink:href="#m90cd6c7b2f" y="229.666381"/>
     <use style="fill:#4c72b0;stroke:#ffffff;stroke-width:0.75;" x="358.590413" xlink:href="#m90cd6c7b2f" y="194.121814"/>
     <use style="fill:#4c72b0;stroke:#ffffff;stroke-width:0.75;" x="361.552397" xlink:href="#m90cd6c7b2f" y="183.497422"/>
     <use style="fill:#4c72b0;stroke:#ffffff;stroke-width:0.75;" x="364.51438" xlink:href="#m90cd6c7b2f" y="186.820041"/>
     <use style="fill:#4c72b0;stroke:#ffffff;stroke-width:0.75;" x="367.476364" xlink:href="#m90cd6c7b2f" y="179.07664"/>
     <use style="fill:#4c72b0;stroke:#ffffff;stroke-width:0.75;" x="370.438347" xlink:href="#m90cd6c7b2f" y="159.056928"/>
     <use style="fill:#4c72b0;stroke:#ffffff;stroke-width:0.75;" x="373.400331" xlink:href="#m90cd6c7b2f" y="152.686142"/>
     <use style="fill:#4c72b0;stroke:#ffffff;stroke-width:0.75;" x="376.362314" xlink:href="#m90cd6c7b2f" y="128.528713"/>
     <use style="fill:#4c72b0;stroke:#ffffff;stroke-width:0.75;" x="379.324298" xlink:href="#m90cd6c7b2f" y="162.19176"/>
     <use style="fill:#4c72b0;stroke:#ffffff;stroke-width:0.75;" x="382.286281" xlink:href="#m90cd6c7b2f" y="144.837645"/>
     <use style="fill:#4c72b0;stroke:#ffffff;stroke-width:0.75;" x="385.248264" xlink:href="#m90cd6c7b2f" y="125.183267"/>
     <use style="fill:#4c72b0;stroke:#ffffff;stroke-width:0.75;" x="388.210248" xlink:href="#m90cd6c7b2f" y="159.912752"/>
     <use style="fill:#4c72b0;stroke:#ffffff;stroke-width:0.75;" x="391.172231" xlink:href="#m90cd6c7b2f" y="130.067207"/>
     <use style="fill:#4c72b0;stroke:#ffffff;stroke-width:0.75;" x="394.134215" xlink:href="#m90cd6c7b2f" y="144.70943"/>
     <use style="fill:#4c72b0;stroke:#ffffff;stroke-width:0.75;" x="397.096198" xlink:href="#m90cd6c7b2f" y="152.082035"/>
     <use style="fill:#4c72b0;stroke:#ffffff;stroke-width:0.75;" x="400.058182" xlink:href="#m90cd6c7b2f" y="194.9817"/>
    </g>
   </g>
   <g id="line2d_15"/>
   <g id="patch_3">
    <path d="M 92.16 307.584 
L 92.16 34.56 
" style="fill:none;stroke:#cccccc;stroke-linecap:square;stroke-linejoin:miter;stroke-width:1.25;"/>
   </g>
   <g id="patch_4">
    <path d="M 414.72 307.584 
L 414.72 34.56 
" style="fill:none;stroke:#cccccc;stroke-linecap:square;stroke-linejoin:miter;stroke-width:1.25;"/>
   </g>
   <g id="patch_5">
    <path d="M 92.16 307.584 
L 414.72 307.584 
" style="fill:none;stroke:#cccccc;stroke-linecap:square;stroke-linejoin:miter;stroke-width:1.25;"/>
   </g>
   <g id="patch_6">
    <path d="M 92.16 34.56 
L 414.72 34.56 
" style="fill:none;stroke:#cccccc;stroke-linecap:square;stroke-linejoin:miter;stroke-width:1.25;"/>
   </g>
   <g id="text_16">
    <!-- Evolution of the Asset Price -->
    <g style="fill:#262626;" transform="translate(171.169688 28.56)scale(0.12 -0.12)">
     <defs>
      <path d="M 628 4666 
L 3578 4666 
L 3578 4134 
L 1259 4134 
L 1259 2753 
L 3481 2753 
L 3481 2222 
L 1259 2222 
L 1259 531 
L 3634 531 
L 3634 0 
L 628 0 
L 628 4666 
z
" id="DejaVuSans-45" transform="scale(0.015625)"/>
      <path d="M 191 3500 
L 800 3500 
L 1894 563 
L 2988 3500 
L 3597 3500 
L 2284 0 
L 1503 0 
L 191 3500 
z
" id="DejaVuSans-76" transform="scale(0.015625)"/>
      <path d="M 1959 3097 
Q 1497 3097 1228 2736 
Q 959 2375 959 1747 
Q 959 1119 1226 758 
Q 1494 397 1959 397 
Q 2419 397 2687 759 
Q 2956 1122 2956 1747 
Q 2956 2369 2687 2733 
Q 2419 3097 1959 3097 
z
M 1959 3584 
Q 2709 3584 3137 3096 
Q 3566 2609 3566 1747 
Q 3566 888 3137 398 
Q 2709 -91 1959 -91 
Q 1206 -91 779 398 
Q 353 888 353 1747 
Q 353 2609 779 3096 
Q 1206 3584 1959 3584 
z
" id="DejaVuSans-6f" transform="scale(0.015625)"/>
      <path d="M 603 4863 
L 1178 4863 
L 1178 0 
L 603 0 
L 603 4863 
z
" id="DejaVuSans-6c" transform="scale(0.015625)"/>
      <path d="M 544 1381 
L 544 3500 
L 1119 3500 
L 1119 1403 
Q 1119 906 1312 657 
Q 1506 409 1894 409 
Q 2359 409 2629 706 
Q 2900 1003 2900 1516 
L 2900 3500 
L 3475 3500 
L 3475 0 
L 2900 0 
L 2900 538 
Q 2691 219 2414 64 
Q 2138 -91 1772 -91 
Q 1169 -91 856 284 
Q 544 659 544 1381 
z
M 1991 3584 
L 1991 3584 
z
" id="DejaVuSans-75" transform="scale(0.015625)"/>
      <path d="M 1172 4494 
L 1172 3500 
L 2356 3500 
L 2356 3053 
L 1172 3053 
L 1172 1153 
Q 1172 725 1289 603 
Q 1406 481 1766 481 
L 2356 481 
L 2356 0 
L 1766 0 
Q 1100 0 847 248 
Q 594 497 594 1153 
L 594 3053 
L 172 3053 
L 172 3500 
L 594 3500 
L 594 4494 
L 1172 4494 
z
" id="DejaVuSans-74" transform="scale(0.015625)"/>
      <path d="M 3513 2113 
L 3513 0 
L 2938 0 
L 2938 2094 
Q 2938 2591 2744 2837 
Q 2550 3084 2163 3084 
Q 1697 3084 1428 2787 
Q 1159 2491 1159 1978 
L 1159 0 
L 581 0 
L 581 3500 
L 1159 3500 
L 1159 2956 
Q 1366 3272 1645 3428 
Q 1925 3584 2291 3584 
Q 2894 3584 3203 3211 
Q 3513 2838 3513 2113 
z
" id="DejaVuSans-6e" transform="scale(0.015625)"/>
      <path id="DejaVuSans-20" transform="scale(0.015625)"/>
      <path d="M 2375 4863 
L 2375 4384 
L 1825 4384 
Q 1516 4384 1395 4259 
Q 1275 4134 1275 3809 
L 1275 3500 
L 2222 3500 
L 2222 3053 
L 1275 3053 
L 1275 0 
L 697 0 
L 697 3053 
L 147 3053 
L 147 3500 
L 697 3500 
L 697 3744 
Q 697 4328 969 4595 
Q 1241 4863 1831 4863 
L 2375 4863 
z
" id="DejaVuSans-66" transform="scale(0.015625)"/>
      <path d="M 3513 2113 
L 3513 0 
L 2938 0 
L 2938 2094 
Q 2938 2591 2744 2837 
Q 2550 3084 2163 3084 
Q 1697 3084 1428 2787 
Q 1159 2491 1159 1978 
L 1159 0 
L 581 0 
L 581 4863 
L 1159 4863 
L 1159 2956 
Q 1366 3272 1645 3428 
Q 1925 3584 2291 3584 
Q 2894 3584 3203 3211 
Q 3513 2838 3513 2113 
z
" id="DejaVuSans-68" transform="scale(0.015625)"/>
      <path d="M 2188 4044 
L 1331 1722 
L 3047 1722 
L 2188 4044 
z
M 1831 4666 
L 2547 4666 
L 4325 0 
L 3669 0 
L 3244 1197 
L 1141 1197 
L 716 0 
L 50 0 
L 1831 4666 
z
" id="DejaVuSans-41" transform="scale(0.015625)"/>
      <path d="M 2834 3397 
L 2834 2853 
Q 2591 2978 2328 3040 
Q 2066 3103 1784 3103 
Q 1356 3103 1142 2972 
Q 928 2841 928 2578 
Q 928 2378 1081 2264 
Q 1234 2150 1697 2047 
L 1894 2003 
Q 2506 1872 2764 1633 
Q 3022 1394 3022 966 
Q 3022 478 2636 193 
Q 2250 -91 1575 -91 
Q 1294 -91 989 -36 
Q 684 19 347 128 
L 347 722 
Q 666 556 975 473 
Q 1284 391 1588 391 
Q 1994 391 2212 530 
Q 2431 669 2431 922 
Q 2431 1156 2273 1281 
Q 2116 1406 1581 1522 
L 1381 1569 
Q 847 1681 609 1914 
Q 372 2147 372 2553 
Q 372 3047 722 3315 
Q 1072 3584 1716 3584 
Q 2034 3584 2315 3537 
Q 2597 3491 2834 3397 
z
" id="DejaVuSans-73" transform="scale(0.015625)"/>
     </defs>
     <use xlink:href="#DejaVuSans-45"/>
     <use x="63.183594" xlink:href="#DejaVuSans-76"/>
     <use x="122.363281" xlink:href="#DejaVuSans-6f"/>
     <use x="183.544922" xlink:href="#DejaVuSans-6c"/>
     <use x="211.328125" xlink:href="#DejaVuSans-75"/>
     <use x="274.707031" xlink:href="#DejaVuSans-74"/>
     <use x="313.916016" xlink:href="#DejaVuSans-69"/>
     <use x="341.699219" xlink:href="#DejaVuSans-6f"/>
     <use x="402.880859" xlink:href="#DejaVuSans-6e"/>
     <use x="466.259766" xlink:href="#DejaVuSans-20"/>
     <use x="498.046875" xlink:href="#DejaVuSans-6f"/>
     <use x="559.228516" xlink:href="#DejaVuSans-66"/>
     <use x="594.433594" xlink:href="#DejaVuSans-20"/>
     <use x="626.220703" xlink:href="#DejaVuSans-74"/>
     <use x="665.429688" xlink:href="#DejaVuSans-68"/>
     <use x="728.808594" xlink:href="#DejaVuSans-65"/>
     <use x="790.332031" xlink:href="#DejaVuSans-20"/>
     <use x="822.119141" xlink:href="#DejaVuSans-41"/>
     <use x="890.527344" xlink:href="#DejaVuSans-73"/>
     <use x="942.626953" xlink:href="#DejaVuSans-73"/>
     <use x="994.726562" xlink:href="#DejaVuSans-65"/>
     <use x="1056.25" xlink:href="#DejaVuSans-74"/>
     <use x="1095.458984" xlink:href="#DejaVuSans-20"/>
     <use x="1127.246094" xlink:href="#DejaVuSans-50"/>
     <use x="1185.798828" xlink:href="#DejaVuSans-72"/>
     <use x="1226.912109" xlink:href="#DejaVuSans-69"/>
     <use x="1254.695312" xlink:href="#DejaVuSans-63"/>
     <use x="1309.675781" xlink:href="#DejaVuSans-65"/>
    </g>
   </g>
   <g id="legend_1">
    <g id="patch_7">
     <path d="M 315.264531 76.619687 
L 407.02 76.619687 
Q 409.22 76.619687 409.22 74.419688 
L 409.22 42.26 
Q 409.22 40.06 407.02 40.06 
L 315.264531 40.06 
Q 313.064531 40.06 313.064531 42.26 
L 313.064531 74.419688 
Q 313.064531 76.619687 315.264531 76.619687 
z
" style="fill:#ffffff;opacity:0.8;stroke:#cccccc;stroke-linejoin:miter;"/>
    </g>
    <g id="text_17">
     <!-- type -->
     <g style="fill:#262626;" transform="translate(347.737891 53.578125)scale(0.12 -0.12)">
      <defs>
       <path d="M 2059 -325 
Q 1816 -950 1584 -1140 
Q 1353 -1331 966 -1331 
L 506 -1331 
L 506 -850 
L 844 -850 
Q 1081 -850 1212 -737 
Q 1344 -625 1503 -206 
L 1606 56 
L 191 3500 
L 800 3500 
L 1894 763 
L 2988 3500 
L 3597 3500 
L 2059 -325 
z
" id="DejaVuSans-79" transform="scale(0.015625)"/>
       <path d="M 1159 525 
L 1159 -1331 
L 581 -1331 
L 581 3500 
L 1159 3500 
L 1159 2969 
Q 1341 3281 1617 3432 
Q 1894 3584 2278 3584 
Q 2916 3584 3314 3078 
Q 3713 2572 3713 1747 
Q 3713 922 3314 415 
Q 2916 -91 2278 -91 
Q 1894 -91 1617 61 
Q 1341 213 1159 525 
z
M 3116 1747 
Q 3116 2381 2855 2742 
Q 2594 3103 2138 3103 
Q 1681 3103 1420 2742 
Q 1159 2381 1159 1747 
Q 1159 1113 1420 752 
Q 1681 391 2138 391 
Q 2594 391 2855 752 
Q 3116 1113 3116 1747 
z
" id="DejaVuSans-70" transform="scale(0.015625)"/>
      </defs>
      <use xlink:href="#DejaVuSans-74"/>
      <use x="39.208984" xlink:href="#DejaVuSans-79"/>
      <use x="98.388672" xlink:href="#DejaVuSans-70"/>
      <use x="161.865234" xlink:href="#DejaVuSans-65"/>
     </g>
    </g>
    <g id="line2d_16">
     <path d="M 317.464531 66.082031 
L 339.464531 66.082031 
" style="fill:none;stroke:#4c72b0;stroke-linecap:round;stroke-width:1.5;"/>
    </g>
    <g id="line2d_17">
     <defs>
      <path d="M 0 3 
C 0.795609 3 1.55874 2.683901 2.12132 2.12132 
C 2.683901 1.55874 3 0.795609 3 0 
C 3 -0.795609 2.683901 -1.55874 2.12132 -2.12132 
C 1.55874 -2.683901 0.795609 -3 0 -3 
C -0.795609 -3 -1.55874 -2.683901 -2.12132 -2.12132 
C -2.683901 -1.55874 -3 -0.795609 -3 0 
C -3 0.795609 -2.683901 1.55874 -2.12132 2.12132 
C -1.55874 2.683901 -0.795609 3 0 3 
z
" id="m2bb4d7e7c5" style="stroke:#4c72b0;"/>
     </defs>
     <g>
      <use style="fill:#4c72b0;stroke:#4c72b0;" x="328.464531" xlink:href="#m2bb4d7e7c5" y="66.082031"/>
     </g>
    </g>
    <g id="text_18">
     <!-- aggregate -->
     <g style="fill:#262626;" transform="translate(348.264531 69.932031)scale(0.11 -0.11)">
      <defs>
       <path d="M 2194 1759 
Q 1497 1759 1228 1600 
Q 959 1441 959 1056 
Q 959 750 1161 570 
Q 1363 391 1709 391 
Q 2188 391 2477 730 
Q 2766 1069 2766 1631 
L 2766 1759 
L 2194 1759 
z
M 3341 1997 
L 3341 0 
L 2766 0 
L 2766 531 
Q 2569 213 2275 61 
Q 1981 -91 1556 -91 
Q 1019 -91 701 211 
Q 384 513 384 1019 
Q 384 1609 779 1909 
Q 1175 2209 1959 2209 
L 2766 2209 
L 2766 2266 
Q 2766 2663 2505 2880 
Q 2244 3097 1772 3097 
Q 1472 3097 1187 3025 
Q 903 2953 641 2809 
L 641 3341 
Q 956 3463 1253 3523 
Q 1550 3584 1831 3584 
Q 2591 3584 2966 3190 
Q 3341 2797 3341 1997 
z
" id="DejaVuSans-61" transform="scale(0.015625)"/>
       <path d="M 2906 1791 
Q 2906 2416 2648 2759 
Q 2391 3103 1925 3103 
Q 1463 3103 1205 2759 
Q 947 2416 947 1791 
Q 947 1169 1205 825 
Q 1463 481 1925 481 
Q 2391 481 2648 825 
Q 2906 1169 2906 1791 
z
M 3481 434 
Q 3481 -459 3084 -895 
Q 2688 -1331 1869 -1331 
Q 1566 -1331 1297 -1286 
Q 1028 -1241 775 -1147 
L 775 -588 
Q 1028 -725 1275 -790 
Q 1522 -856 1778 -856 
Q 2344 -856 2625 -561 
Q 2906 -266 2906 331 
L 2906 616 
Q 2728 306 2450 153 
Q 2172 0 1784 0 
Q 1141 0 747 490 
Q 353 981 353 1791 
Q 353 2603 747 3093 
Q 1141 3584 1784 3584 
Q 2172 3584 2450 3431 
Q 2728 3278 2906 2969 
L 2906 3500 
L 3481 3500 
L 3481 434 
z
" id="DejaVuSans-67" transform="scale(0.015625)"/>
      </defs>
      <use xlink:href="#DejaVuSans-61"/>
      <use x="61.279297" xlink:href="#DejaVuSans-67"/>
      <use x="124.755859" xlink:href="#DejaVuSans-67"/>
      <use x="188.232422" xlink:href="#DejaVuSans-72"/>
      <use x="227.095703" xlink:href="#DejaVuSans-65"/>
      <use x="288.619141" xlink:href="#DejaVuSans-67"/>
      <use x="352.095703" xlink:href="#DejaVuSans-61"/>
      <use x="413.375" xlink:href="#DejaVuSans-74"/>
      <use x="452.583984" xlink:href="#DejaVuSans-65"/>
     </g>
    </g>
   </g>
  </g>
 </g>
 <defs>
  <clipPath id="p359f23e007">
   <rect height="273.024" width="322.56" x="92.16" y="34.56"/>
  </clipPath>
 </defs>
</svg>
